<svg width="1440" height="676" viewBox="0 0 1440 676" fill="none" xmlns="http://www.w3.org/2000/svg">
<g clip-path="url(#clip0_212_16580)" filter="url(#filter0_f_212_16580)">
<path opacity="0.15" d="M1367.19 278.88C1400.7 315.97 1427.88 380.451 1377.8 425.973C1372.63 430.666 1324.18 473.248 1251.3 467.96C1162.54 461.52 1144.34 391.812 1046.38 373.716C940.298 354.119 878.037 420.425 826.231 400.056C764.971 375.97 757.451 246.071 868.331 190.396C1001.91 123.326 1277.08 179.151 1367.19 278.88Z" fill="#EBC136"/>
<path opacity="0.15" d="M532.245 470.639C563.307 451.569 597.155 413.148 576.134 374.285C573.966 370.278 553.262 333.654 504.679 324.834C445.505 314.09 416.162 357.52 348.092 352.996C274.375 348.096 250.688 293.301 211.971 298.114C166.189 303.806 128.627 389.21 186.514 445.149C256.248 512.538 448.723 521.917 532.245 470.639Z" fill="#EBC136"/>
<path opacity="0.15" d="M714.575 362.89C699.187 341.799 683.464 301.221 696.947 263.859C698.337 260.007 711.519 224.857 737.878 219.297C769.983 212.526 783.013 257.799 819.481 257.823C858.973 257.849 874.817 204.774 895.122 212.155C919.131 220.883 934.044 308.57 899.945 360.508C858.865 423.075 755.953 419.602 714.575 362.89Z" fill="#EBC136"/>
<path opacity="0.15" d="M702.467 315.802C719.284 305.124 737.622 283.633 726.276 261.936C725.107 259.699 713.931 239.254 687.654 234.363C655.649 228.407 639.745 252.693 602.923 250.218C563.047 247.538 550.27 216.943 529.321 219.661C504.55 222.876 484.171 270.62 515.448 301.828C553.128 339.423 657.247 344.514 702.467 315.802Z" fill="#EBC136"/>
<path opacity="0.15" d="M1426.62 289.365C1444.76 273.046 1464.7 240.494 1452.95 208.192C1451.74 204.861 1440.14 174.43 1412.17 167.595C1378.09 159.269 1360.7 195.965 1321.42 192.946C1278.89 189.678 1265.75 144.066 1243.34 148.534C1216.83 153.818 1194.28 225.751 1227.15 271.934C1266.76 327.569 1377.86 333.244 1426.62 289.365Z" fill="#8047F8"/>
<path opacity="0.15" d="M1438.61 418.852C1452.71 429.804 1468.15 451.725 1458.84 473.622C1457.88 475.88 1448.7 496.511 1426.82 501.261C1400.16 507.047 1386.73 482.312 1356.03 484.533C1322.79 486.938 1312.35 517.841 1294.86 514.922C1274.17 511.471 1256.84 462.932 1282.71 431.552C1313.88 393.749 1400.69 389.404 1438.61 418.852Z" fill="#8047F8"/>
<path opacity="0.15" d="M239.937 177.892C252.507 199.616 264.932 241.056 252.695 278.492C251.433 282.351 239.5 317.558 217.055 322.502C189.717 328.524 179.675 282.405 148.792 281.442C115.347 280.4 100.765 333.665 83.7319 325.678C63.5904 316.234 52.883 227.175 82.8998 175.53C119.06 113.315 206.139 119.476 239.937 177.892Z" fill="#EBC136"/>
<path opacity="0.15" d="M881.507 473.947C855.621 454.727 830.462 416.18 856.926 377.528C859.654 373.543 885.434 337.123 932.6 328.62C990.048 318.262 1010.11 361.78 1074.84 357.683C1144.94 353.246 1176.66 298.712 1212.2 303.753C1254.23 309.713 1274.76 395.166 1210.71 450.631C1133.55 517.449 951.112 525.627 881.507 473.947Z" fill="#EBC136"/>
<path opacity="0.15" d="M807.922 440.538C829.564 421.513 852.249 384.904 834.967 351.187C833.185 347.71 816.248 315.989 780.43 310.962C736.805 304.84 717.654 345.687 667.868 345.695C613.953 345.704 593.92 297.808 565.979 304.46C532.939 312.327 509.942 391.444 554.931 438.321C609.129 494.792 749.728 491.695 807.922 440.538Z" fill="#8047F8"/>
<path opacity="0.15" d="M855.472 182.004C896.019 192.666 939.079 212.465 908.336 229.257C905.167 230.989 874.993 246.762 809.11 248.009C728.863 249.528 692.181 227.67 600.369 225.784C500.943 223.742 465.601 247.767 413.852 243.269C352.66 237.95 307.602 196.145 389 173.591C487.058 146.42 746.443 153.335 855.472 182.004Z" fill="#8047F8"/>
<path opacity="0.15" d="M188.139 423.866C207.225 401.714 227.35 359.381 212.454 320.978C210.918 317.018 196.31 280.899 164.98 275.685C126.82 269.335 109.761 316.475 66.1632 317.25C18.9491 318.089 1.74424 263.467 -22.7709 271.526C-51.7595 281.056 -72.4579 372.145 -33.3915 425.214C13.6708 489.144 136.816 483.431 188.139 423.866Z" fill="#8047F8"/>
</g>
<defs>
<filter id="filter0_f_212_16580" x="-167" y="-119" width="1760" height="864" filterUnits="userSpaceOnUse" color-interpolation-filters="sRGB">
<feFlood flood-opacity="0" result="BackgroundImageFix"/>
<feBlend mode="normal" in="SourceGraphic" in2="BackgroundImageFix" result="shape"/>
<feGaussianBlur stdDeviation="80" result="effect1_foregroundBlur_212_16580"/>
</filter>
<clipPath id="clip0_212_16580">
<rect width="1440" height="544" fill="white" transform="translate(-7 41)"/>
</clipPath>
</defs>
</svg>
